<?xml version="1.0" encoding="utf-8"?>
<!-- Generator: Adobe Illustrator 24.0.0, SVG Export Plug-In . SVG Version: 6.00 Build 0)  -->
<svg version="1.1" id="Layer_1" xmlns="http://www.w3.org/2000/svg" xmlns:xlink="http://www.w3.org/1999/xlink" x="0px" y="0px"
	 viewBox="0 0 256 256" enable-background="new 0 0 256 256" xml:space="preserve">
<g>
</g>
<g>
	<path fill="#FEB69F" d="M231.02,144.85c0,15.68-12.68,28.4-28.35,28.45h-0.1c-15.72,0-28.46-12.73-28.46-28.45
		c0-15.71,12.74-28.46,28.46-28.46h0.1C218.34,116.45,231.02,129.17,231.02,144.85z"/>
	<path fill="#EFEFEF" d="M202.67,64.62v51.77h-0.1c-15.72,0-28.46,12.75-28.46,28.46c0,15.72,12.74,28.45,28.46,28.45
		c-23.34,0-42.26,18.92-42.26,42.26v8.69c0-18.55-15.2-32.31-32.31-32.31c-17.97,0-32.31,14.65-32.31,32.31v-8.69
		c0-23.29-18.86-42.26-42.26-42.26c15.72,0,28.46-12.73,28.46-28.45c0-15.71-12.74-28.46-28.46-28.46h-0.1V64.62
		c0-11.24,4.89-21.95,13.39-29.31l5.26-4.56L70.29,9.61c-0.26-3.3,2.34-6.11,5.64-6.11h104.14c3.3,0,5.9,2.81,5.64,6.11l-1.69,21.14
		l5.26,4.56C197.78,42.67,202.67,53.38,202.67,64.62z"/>
	<path fill="#AFAFAF" d="M128,191.94c-17.97,0-32.31,14.65-32.31,32.31v-8.69c0-23.29-18.86-42.26-42.26-42.26
		c15.72,0,28.46-12.73,28.46-28.45c0-15.71-12.74-28.46-28.46-28.46h-0.1v-7.44h0.1c19.8,0,35.91,16.1,35.91,35.9
		c0,10.75-4.75,20.41-12.27,26.99c10.01,5.44,17.96,14.21,22.33,24.81c4.28-4.41,9.33-7.65,14.77-9.67
		C117.93,190.08,122.75,191.94,128,191.94z"/>
	<path fill="#AFAFAF" d="M202.67,108.95v7.44h-0.1c-15.72,0-28.46,12.75-28.46,28.46c0,15.72,12.74,28.45,28.46,28.45
		c-23.34,0-42.26,18.92-42.26,42.26v8.69c0-18.55-15.2-32.31-32.31-32.31c5.25,0,10.07-1.86,13.83-4.96
		c5.44,2.02,10.49,5.26,14.77,9.67c4.37-10.6,12.32-19.37,22.33-24.81c-7.52-6.58-12.27-16.24-12.27-26.99
		c0-19.8,16.11-35.9,35.91-35.9H202.67z"/>
	<path fill="#FEB69F" d="M81.89,144.85c0,15.72-12.74,28.45-28.46,28.45h-0.1c-15.67-0.05-28.35-12.77-28.35-28.45
		c0-15.68,12.68-28.4,28.35-28.46h0.1C69.15,116.39,81.89,129.14,81.89,144.85z"/>
	<path fill="#FEB69F" d="M149.76,170.18c0,6.76-3.09,12.8-7.93,16.8c-3.76,3.1-8.58,4.96-13.83,4.96s-10.07-1.86-13.83-4.96
		c-4.84-4-7.93-10.04-7.93-16.8c0-12.02,9.74-21.76,21.76-21.76S149.76,158.16,149.76,170.18z"/>
	<circle fill="#F0C020" cx="128" cy="91.301" r="39.444"/>
	<path fill="#F8E5B0" d="M128,125.381c-2.355,0-4.718-0.244-7.023-0.726c-1.352-0.282-2.218-1.607-1.936-2.959
		c0.283-1.351,1.608-2.219,2.958-1.936c1.969,0.411,3.988,0.62,6,0.62c16.1,0,29.081-12.977,29.081-29.08
		c0-7.78-3.021-15.087-8.507-20.573c-0.977-0.977-0.977-2.559,0-3.535c0.976-0.977,2.56-0.977,3.535,0
		c6.431,6.431,9.972,14.992,9.972,24.108C162.081,110.162,146.868,125.381,128,125.381z M110.936,120.823
		c-2.564-1.481-4.935-3.303-7.045-5.413c-0.977-0.977-0.977-2.559,0-3.535c0.976-0.977,2.56-0.977,3.535,0
		c1.802,1.802,3.824,3.355,6.011,4.618c1.195,0.69,1.605,2.22,0.915,3.415C113.66,121.106,112.129,121.512,110.936,120.823z"/>
	<path fill="#FB5E3D" d="M244.82,215.56v36.94h-84.51v-36.94c0-23.34,18.92-42.26,42.26-42.26h0.1
		C225.91,173.34,244.82,192.2,244.82,215.56z"/>
	<path fill="#8B72E9" d="M160.31,224.25v28.25H95.69v-28.25c0-17.66,14.34-32.31,32.31-32.31
		C145.11,191.94,160.31,205.7,160.31,224.25z"/>
	<path fill="#72C2E9" d="M95.69,215.56v36.94H11.18v-36.94c0-23.31,18.86-42.21,42.15-42.26h0.1
		C76.83,173.3,95.69,192.27,95.69,215.56z"/>
	<path fill="#C5E5FE" d="M83.582,242.89c-1.381,0-2.5-1.119-2.5-2.5v-7.193c0-1.381,1.119-2.5,2.5-2.5s2.5,1.119,2.5,2.5v7.193
		C86.082,241.771,84.963,242.89,83.582,242.89z M83.582,225.696c-1.381,0-2.5-1.119-2.5-2.5v-7.638
		c0-15.245-12.403-27.647-27.647-27.647c-1.381,0-2.5-1.119-2.5-2.5s1.119-2.5,2.5-2.5c18.002,0,32.647,14.646,32.647,32.647v7.638
		C86.082,224.577,84.963,225.696,83.582,225.696z"/>
	<path fill="#B8A4FF" d="M148.206,242.89c-1.381,0-2.5-1.119-2.5-2.5v-6.885c0-1.381,1.119-2.5,2.5-2.5s2.5,1.119,2.5,2.5v6.885
		C150.706,241.771,149.587,242.89,148.206,242.89z M148.191,226.005c-1.339,0-2.448-1.061-2.497-2.409
		c-0.348-9.563-8.12-17.053-17.694-17.053c-1.381,0-2.5-1.119-2.5-2.5s1.119-2.5,2.5-2.5c12.278,0,22.245,9.606,22.691,21.871
		c0.05,1.38-1.028,2.539-2.408,2.589C148.253,226.004,148.221,226.005,148.191,226.005z"/>
	<path fill="#FFCBC3" d="M232.712,242.89c-1.381,0-2.5-1.119-2.5-2.5v-7.193c0-1.381,1.119-2.5,2.5-2.5s2.5,1.119,2.5,2.5v7.193
		C235.212,241.771,234.093,242.89,232.712,242.89z M232.712,225.696c-1.381,0-2.5-1.119-2.5-2.5v-7.638
		c0-15.245-12.403-27.647-27.647-27.647c-1.381,0-2.5-1.119-2.5-2.5s1.119-2.5,2.5-2.5c18.002,0,32.647,14.646,32.647,32.647v7.638
		C235.212,224.577,234.093,225.696,232.712,225.696z"/>
	<path d="M70.94,144.85c0-1.38-1.12-2.5-2.5-2.5c-1.37,0-2.49,1.11-2.5,2.48c0,0.01,0,0.01,0,0.02c-0.01,6.88-5.62,12.49-12.5,12.51
		c-6.89-0.02-12.5-5.63-12.51-12.51c0-1.38-1.12-2.5-2.5-2.5c-1.38,0-2.5,1.12-2.5,2.5c0,9.65,7.86,17.5,17.51,17.5
		C63.08,162.35,70.94,154.5,70.94,144.85z"/>
	<path d="M136.85,167.68c-1.38,0-2.5,1.12-2.5,2.5c-0.01,3.49-2.86,6.34-6.35,6.34c-3.49,0-6.34-2.85-6.35-6.34
		c0-1.38-1.12-2.5-2.5-2.5c-1.37,0-2.5,1.12-2.5,2.5c0.01,6.25,5.1,11.34,11.35,11.34s11.34-5.09,11.35-11.34
		C139.35,168.8,138.22,167.68,136.85,167.68z"/>
	<path d="M215.89,142.35c-1.38,0-2.5,1.12-2.5,2.5c-0.01,5.96-4.87,10.811-10.82,10.82c-5.96-0.01-10.82-4.86-10.83-10.82
		c0-1.38-1.12-2.5-2.5-2.5s-2.5,1.12-2.5,2.5c0.01,8.72,7.1,15.82,15.83,15.82c8.72,0,15.81-7.101,15.82-15.82
		C218.39,143.47,217.27,142.35,215.89,142.35z"/>
	<path d="M127.488,66.213c-1.381,0-2.5,1.119-2.5,2.5v3.524h-2.032c-6.018-0.01-10.862,4.792-10.862,10.781
		c0,5.945,4.837,10.782,10.782,10.782h9.223c3.188,0,5.782,2.595,5.782,5.783c0,3.171-2.554,5.781-5.798,5.781
		c-0.015,0-0.03,0-0.045,0h-9.636c-2.242-0.016-4.388-1.057-5.887-2.855c-0.884-1.062-2.461-1.203-3.521-0.32
		c-1.061,0.885-1.204,2.461-0.32,3.521c2.443,2.932,5.976,4.628,9.71,4.654h2.604v3.524c0,1.381,1.119,2.5,2.5,2.5
		s2.5-1.119,2.5-2.5v-3.524c0.725,0,1.383,0,2.114,0c5.953,0,10.779-4.819,10.779-10.781c0-5.946-4.837-10.783-10.782-10.783h-9.223
		c-3.188,0-5.782-2.594-5.782-5.782c0-3.171,2.554-5.781,5.798-5.781c0.015,0,0.03,0,0.045,0h8.831
		c2.564,0.019,5.039,1.41,6.46,3.632c0.744,1.163,2.29,1.504,3.453,0.76c1.164-0.744,1.503-2.29,0.759-3.453
		c-2.357-3.687-6.333-5.907-10.653-5.938h-1.799v-3.524C129.988,67.332,128.869,66.213,127.488,66.213z"/>
	<path d="M128,49.359c-23.16,0-41.94,18.717-41.94,41.94c0,1.41,0.07,2.83,0.2,4.21c0.14,1.37,1.37,2.36,2.74,2.24
		c1.37-0.141,2.38-1.36,2.24-2.73c0-0.01,0-0.01,0-0.01c-0.12-1.21-0.18-2.46-0.18-3.71c0-20.408,16.515-36.94,36.94-36.94
		c20.414,0,36.929,16.517,36.95,36.94c-0.02,20.414-16.526,36.94-36.95,36.94c-12.08,0-23.42-5.921-30.34-15.851
		c-0.76-1.09-2.39-1.39-3.48-0.63c-1.16,0.802-1.398,2.381-0.62,3.48c7.84,11.27,20.71,18,34.44,18
		c23.158,0,41.94-18.716,41.94-41.94C169.94,68.054,151.136,49.359,128,49.359z"/>
	<path d="M93.34,104.109c-0.47-1.25-1.95-1.939-3.22-1.479c-1.29,0.479-1.95,1.92-1.47,3.22c0.483,1.3,1.96,1.962,3.21,1.47
		C93.133,106.848,93.819,105.423,93.34,104.109z"/>
	<path d="M244.82,255c1.38,0,2.5-1.12,2.5-2.5v-36.94c0-20.307-13.398-37.141-31.439-42.752c10.274-4.898,17.64-15.45,17.64-27.958
		c0-16.356-12.597-29.534-28.35-30.844V64.62c0-11.98-5.19-23.36-14.25-31.2l-4.31-3.73c0.033-0.41,1.62-20.128,1.62-20.54
		c0-4.489-3.66-8.149-8.16-8.149h-6.76c-1.38,0-2.5,1.12-2.5,2.5s1.12,2.5,2.5,2.5h6.76c1.74,0,3.15,1.42,3.16,3.149
		c0,0.265-0.292,3.806-0.313,4.07H154.35c-1.38,0-2.5,1.13-2.5,2.51c0,1.37,1.12,2.5,2.5,2.5h28.166l-0.802,10.021H74.286
		l-0.547-6.84h31.231c1.38,0,2.5-1.13,2.5-2.5c0-1.38-1.12-2.5-2.5-2.5H73.34l-0.56-7c0-0.08-0.01-0.16-0.01-0.261
		C72.77,7.42,74.19,6,75.93,6h77.38c1.38,0,2.5-1.12,2.5-2.5s-1.12-2.5-2.5-2.5H75.93c-4.824,0-8.535,4.165-8.13,8.81l1.59,19.88
		l-4.31,3.73c-9.05,7.84-14.25,19.21-14.25,31.2v49.386c-15.731,1.311-28.35,14.464-28.35,30.843
		c0,12.419,7.284,23.021,17.64,27.959C22.206,178.36,8.68,195.141,8.68,215.56v36.94c0,1.38,1.12,2.5,2.5,2.5
		c1.38,0,2.5-1.12,2.5-2.5v-36.94c0-21.88,17.79-39.72,39.66-39.76c22.257,0,39.85,17.921,39.85,39.76v36.94
		c0,1.38,1.12,2.5,2.5,2.5s2.5-1.12,2.5-2.5v-28.25c0-16.273,13.188-29.811,29.81-29.811c15.782,0,29.81,12.691,29.81,29.811v28.25
		c0,1.38,1.12,2.5,2.5,2.5c1.38,0,2.5-1.12,2.5-2.5v-36.94c0-21.809,17.573-39.76,39.86-39.76c21.87,0.04,39.65,17.87,39.65,39.76
		v36.94C242.32,253.88,243.44,255,244.82,255z M27.48,144.85c0-14.286,11.646-25.96,25.95-25.96c14.29,0.03,25.93,11.67,25.96,25.96
		c-0.03,14.28-11.67,25.92-25.96,25.95C39.063,170.8,27.48,159.097,27.48,144.85z M158.542,207.508
		c-4.004-7.271-10.687-13.109-18.929-16.044c7.911-4.311,12.647-12.494,12.647-21.284c0-13.386-10.823-24.26-24.26-24.26
		c-13.47,0-24.26,10.905-24.26,24.26c0,8.743,4.695,16.941,12.624,21.272c-8.091,2.882-14.814,8.67-18.898,16.106
		c-3.02-16.738-15.217-29.946-30.719-34.75c10.156-4.84,17.643-15.316,17.643-27.958c0-16.265-12.53-29.639-28.56-30.86V64.62
		c0-10.53,4.56-20.53,12.52-27.42l4.565-3.95h110.169l4.556,3.95c7.96,6.89,12.53,16.89,12.53,27.42v49.37
		c-16.008,1.219-28.56,14.573-28.56,30.86c0,12.414,7.277,23.023,17.652,27.963C173.512,177.725,161.535,191.008,158.542,207.508z
		 M128,189.439c-10.764,0-19.26-8.755-19.26-19.26c0.02-10.6,8.66-19.24,19.26-19.26c10.6,0.02,19.24,8.66,19.26,19.26
		C147.26,180.676,138.773,189.439,128,189.439z M176.61,144.85c0.03-14.222,11.596-25.96,26.06-25.96
		c14.25,0.05,25.85,11.7,25.85,25.96s-11.6,25.91-25.86,25.95C188.204,170.8,176.64,159.057,176.61,144.85z"/>
	<circle cx="163.31" cy="3.5" r="2.5"/>
</g>
</svg>
